<?xml version="1.0" encoding="UTF-8" standalone="no"?>
<!DOCTYPE svg PUBLIC "-//W3C//DTD SVG 1.1//EN"
 "http://www.w3.org/Graphics/SVG/1.1/DTD/svg11.dtd">
<!-- Generated by graphviz version 3.0.0 (20220226.1711)
 -->
<!-- Title: G Pages: 1 -->
<svg width="704pt" height="197pt"
 viewBox="0.00 0.00 704.20 197.07" xmlns="http://www.w3.org/2000/svg" xmlns:xlink="http://www.w3.org/1999/xlink">
<g id="graph0" class="graph" transform="scale(1 1) rotate(0) translate(21.6 175.47)">
<title>G</title>
<polygon fill="#111111" stroke="transparent" points="-21.6,21.6 -21.6,-175.47 682.6,-175.47 682.6,21.6 -21.6,21.6"/>
<!-- ../models/db/index.js -->
<g id="node1" class="node">
<title>../models/db/index.js</title>
<path fill="none" stroke="#ff6c60" d="M132.33,-81C132.33,-81 7.67,-81 7.67,-81 3.83,-81 0,-77.17 0,-73.33 0,-73.33 0,-65.67 0,-65.67 0,-61.83 3.83,-58 7.67,-58 7.67,-58 132.33,-58 132.33,-58 136.17,-58 140,-61.83 140,-65.67 140,-65.67 140,-73.33 140,-73.33 140,-77.17 136.17,-81 132.33,-81"/>
<text text-anchor="middle" x="70" y="-65.8" font-family="Arial" font-size="14.00" fill="#ff6c60">../models/db/index.js</text>
</g>
<!-- ../utils/logger.js -->
<g id="node2" class="node">
<title>../utils/logger.js</title>
<path fill="none" stroke="#c6c5fe" d="M490.33,-122C490.33,-122 399.67,-122 399.67,-122 395.83,-122 392,-118.17 392,-114.33 392,-114.33 392,-106.67 392,-106.67 392,-102.83 395.83,-99 399.67,-99 399.67,-99 490.33,-99 490.33,-99 494.17,-99 498,-102.83 498,-106.67 498,-106.67 498,-114.33 498,-114.33 498,-118.17 494.17,-122 490.33,-122"/>
<text text-anchor="middle" x="445" y="-106.8" font-family="Arial" font-size="14.00" fill="#c6c5fe">../utils/logger.js</text>
</g>
<!-- ../models/db/index.js&#45;&gt;../utils/logger.js -->
<g id="edge1" class="edge">
<title>../models/db/index.js&#45;&gt;../utils/logger.js</title>
<path fill="none" stroke="#757575" d="M92.73,-81.08C129.03,-99.7 204.87,-135.52 274,-148.5 309.82,-155.22 320.31,-155.88 356,-148.5 376.43,-144.28 397.96,-135.07 414.61,-126.78"/>
<polygon fill="#757575" stroke="#757575" points="416.52,-129.74 423.81,-122.05 413.31,-123.52 416.52,-129.74"/>
</g>
<!-- index.js -->
<g id="node3" class="node">
<title>index.js</title>
<path fill="none" stroke="#ff6c60" d="M230.33,-81C230.33,-81 183.67,-81 183.67,-81 179.83,-81 176,-77.17 176,-73.33 176,-73.33 176,-65.67 176,-65.67 176,-61.83 179.83,-58 183.67,-58 183.67,-58 230.33,-58 230.33,-58 234.17,-58 238,-61.83 238,-65.67 238,-65.67 238,-73.33 238,-73.33 238,-77.17 234.17,-81 230.33,-81"/>
<text text-anchor="middle" x="207" y="-65.8" font-family="Arial" font-size="14.00" fill="#ff6c60">index.js</text>
</g>
<!-- ../models/db/index.js&#45;&gt;index.js -->
<g id="edge2" class="edge">
<title>../models/db/index.js&#45;&gt;index.js</title>
<path fill="none" stroke="#757575" d="M140.08,-69.5C148.83,-69.5 157.55,-69.5 165.64,-69.5"/>
<polygon fill="#757575" stroke="#757575" points="165.87,-73 175.87,-69.5 165.87,-66 165.87,-73"/>
</g>
<!-- ../utils/constants.js -->
<g id="node4" class="node">
<title>../utils/constants.js</title>
<path fill="none" stroke="#cfffac" d="M653.33,-101C653.33,-101 541.67,-101 541.67,-101 537.83,-101 534,-97.17 534,-93.33 534,-93.33 534,-85.67 534,-85.67 534,-81.83 537.83,-78 541.67,-78 541.67,-78 653.33,-78 653.33,-78 657.17,-78 661,-81.83 661,-85.67 661,-85.67 661,-93.33 661,-93.33 661,-97.17 657.17,-101 653.33,-101"/>
<text text-anchor="middle" x="597.5" y="-85.8" font-family="Arial" font-size="14.00" fill="#cfffac">../utils/constants.js</text>
</g>
<!-- ../utils/logger.js&#45;&gt;../utils/constants.js -->
<g id="edge3" class="edge">
<title>../utils/logger.js&#45;&gt;../utils/constants.js</title>
<path fill="none" stroke="#757575" d="M498.22,-103.21C506.45,-102.06 515.1,-100.86 523.7,-99.66"/>
<polygon fill="#757575" stroke="#757575" points="524.33,-103.1 533.75,-98.26 523.37,-96.17 524.33,-103.1"/>
</g>
<!-- envVars.js -->
<g id="node5" class="node">
<title>envVars.js</title>
<path fill="none" stroke="#c6c5fe" d="M476.83,-81C476.83,-81 413.17,-81 413.17,-81 409.33,-81 405.5,-77.17 405.5,-73.33 405.5,-73.33 405.5,-65.67 405.5,-65.67 405.5,-61.83 409.33,-58 413.17,-58 413.17,-58 476.83,-58 476.83,-58 480.67,-58 484.5,-61.83 484.5,-65.67 484.5,-65.67 484.5,-73.33 484.5,-73.33 484.5,-77.17 480.67,-81 476.83,-81"/>
<text text-anchor="middle" x="445" y="-65.8" font-family="Arial" font-size="14.00" fill="#c6c5fe">envVars.js</text>
</g>
<!-- index.js&#45;&gt;envVars.js -->
<g id="edge5" class="edge">
<title>index.js&#45;&gt;envVars.js</title>
<path fill="none" stroke="#757575" d="M238.37,-69.5C277.95,-69.5 347.67,-69.5 394.84,-69.5"/>
<polygon fill="#757575" stroke="#757575" points="395.13,-73 405.13,-69.5 395.13,-66 395.13,-73"/>
</g>
<!-- morgan.js -->
<g id="node6" class="node">
<title>morgan.js</title>
<path fill="none" stroke="#ff6c60" d="M345.83,-121C345.83,-121 284.17,-121 284.17,-121 280.33,-121 276.5,-117.17 276.5,-113.33 276.5,-113.33 276.5,-105.67 276.5,-105.67 276.5,-101.83 280.33,-98 284.17,-98 284.17,-98 345.83,-98 345.83,-98 349.67,-98 353.5,-101.83 353.5,-105.67 353.5,-105.67 353.5,-113.33 353.5,-113.33 353.5,-117.17 349.67,-121 345.83,-121"/>
<text text-anchor="middle" x="315" y="-105.8" font-family="Arial" font-size="14.00" fill="#ff6c60">morgan.js</text>
</g>
<!-- index.js&#45;&gt;morgan.js -->
<g id="edge6" class="edge">
<title>index.js&#45;&gt;morgan.js</title>
<path fill="none" stroke="#757575" d="M238.09,-80.86C249.19,-85.04 261.94,-89.85 273.78,-94.32"/>
<polygon fill="#757575" stroke="#757575" points="272.87,-97.72 283.46,-97.98 275.34,-91.17 272.87,-97.72"/>
</g>
<!-- passport.js -->
<g id="node7" class="node">
<title>passport.js</title>
<path fill="none" stroke="#ff6c60" d="M348.33,-23C348.33,-23 281.67,-23 281.67,-23 277.83,-23 274,-19.17 274,-15.33 274,-15.33 274,-7.67 274,-7.67 274,-3.83 277.83,0 281.67,0 281.67,0 348.33,0 348.33,0 352.17,0 356,-3.83 356,-7.67 356,-7.67 356,-15.33 356,-15.33 356,-19.17 352.17,-23 348.33,-23"/>
<text text-anchor="middle" x="315" y="-7.8" font-family="Arial" font-size="14.00" fill="#ff6c60">passport.js</text>
</g>
<!-- index.js&#45;&gt;passport.js -->
<g id="edge7" class="edge">
<title>index.js&#45;&gt;passport.js</title>
<path fill="none" stroke="#757575" d="M229.2,-57.9C244.79,-49.37 266.23,-37.64 283.64,-28.11"/>
<polygon fill="#757575" stroke="#757575" points="285.75,-30.95 292.84,-23.08 282.39,-24.81 285.75,-30.95"/>
</g>
<!-- envVars.js&#45;&gt;../utils/constants.js -->
<g id="edge4" class="edge">
<title>envVars.js&#45;&gt;../utils/constants.js</title>
<path fill="none" stroke="#757575" d="M484.76,-74.65C496.69,-76.24 510.25,-78.04 523.7,-79.83"/>
<polygon fill="#757575" stroke="#757575" points="523.56,-83.34 533.93,-81.19 524.48,-76.4 523.56,-83.34"/>
</g>
<!-- morgan.js&#45;&gt;../utils/logger.js -->
<g id="edge8" class="edge">
<title>morgan.js&#45;&gt;../utils/logger.js</title>
<path fill="none" stroke="#757575" d="M353.71,-109.79C362.49,-109.86 372.06,-109.94 381.58,-110.01"/>
<polygon fill="#757575" stroke="#757575" points="381.83,-113.51 391.86,-110.09 381.88,-106.51 381.83,-113.51"/>
</g>
<!-- morgan.js&#45;&gt;envVars.js -->
<g id="edge9" class="edge">
<title>morgan.js&#45;&gt;envVars.js</title>
<path fill="none" stroke="#757575" d="M353.02,-97.93C366.82,-93.62 382.67,-88.67 397.23,-84.12"/>
<polygon fill="#757575" stroke="#757575" points="398.56,-87.37 407.06,-81.04 396.47,-80.69 398.56,-87.37"/>
</g>
<!-- morgan.js&#45;&gt;morgan.js -->
<g id="edge10" class="edge">
<title>morgan.js&#45;&gt;morgan.js</title>
<path fill="none" stroke="#757575" d="M297.37,-121.01C290.77,-129.91 296.65,-139 315,-139 326.18,-139 332.73,-135.63 334.65,-130.97"/>
<polygon fill="#757575" stroke="#757575" points="338.05,-130.11 332.63,-121.01 331.19,-131.5 338.05,-130.11"/>
</g>
<!-- passport.js&#45;&gt;../models/db/index.js -->
<g id="edge11" class="edge">
<title>passport.js&#45;&gt;../models/db/index.js</title>
<path fill="none" stroke="#757575" d="M273.84,-21.09C234.41,-30.5 173.84,-44.95 129.15,-55.62"/>
<polygon fill="#757575" stroke="#757575" points="128.21,-52.25 119.3,-57.97 129.84,-59.05 128.21,-52.25"/>
</g>
<!-- passport.js&#45;&gt;envVars.js -->
<g id="edge12" class="edge">
<title>passport.js&#45;&gt;envVars.js</title>
<path fill="none" stroke="#757575" d="M341.6,-23.1C360.95,-31.87 387.75,-44.01 409.08,-53.68"/>
<polygon fill="#757575" stroke="#757575" points="407.9,-56.98 418.45,-57.92 410.79,-50.61 407.9,-56.98"/>
</g>
<!-- passport.js&#45;&gt;passport.js -->
<g id="edge13" class="edge">
<title>passport.js&#45;&gt;passport.js</title>
<path fill="none" stroke="#757575" d="M297.37,-23.01C290.77,-31.91 296.65,-41 315,-41 326.18,-41 332.73,-37.63 334.65,-32.97"/>
<polygon fill="#757575" stroke="#757575" points="338.05,-32.11 332.63,-23.01 331.19,-33.5 338.05,-32.11"/>
</g>
</g>
</svg>
